<?xml version="1.0" standalone="no"?>
<!DOCTYPE svg PUBLIC "-//W3C//DTD SVG 20010904//EN"
 "http://www.w3.org/TR/2001/REC-SVG-20010904/DTD/svg10.dtd">
<svg version="1.0" xmlns="http://www.w3.org/2000/svg"
 width="1260.000000pt" height="600.000000pt" viewBox="0 0 1260.000000 600.000000"
 preserveAspectRatio="xMidYMid meet">

<g transform="translate(0.000000,600.000000) scale(0.100000,-0.100000)"
fill="#000000" stroke="none">
<path d="M7632 4329 c-75 -14 -159 -59 -206 -109 -88 -95 -106 -157 -106 -382
0 -100 -4 -169 -10 -173 -5 -3 -10 -11 -10 -16 0 -6 5 -7 10 -4 6 4 10 -23 10
-74 0 -54 -4 -81 -12 -84 -10 -4 -10 -8 1 -15 10 -7 12 -32 10 -101 -2 -50 -1
-91 4 -91 4 0 7 124 7 275 0 177 4 275 10 275 7 0 10 -645 10 -1915 0 -1689 2
-1915 15 -1915 13 0 15 239 17 2012 3 1924 4 2015 21 2060 10 26 36 67 58 90
l40 43 -31 -62 c-63 -131 -60 4 -60 -2165 l0 -1978 30 0 30 0 0 1690 0 1690
1085 0 1085 0 0 -1690 0 -1690 30 0 30 0 -2 2003 -3 2002 -23 65 c-13 36 -37
82 -54 104 -25 30 -26 36 -10 27 34 -18 72 -76 95 -143 l22 -63 3 -1997 c1
-1298 6 -1998 12 -1998 8 0 19 3615 11 3905 -3 138 -29 217 -94 292 l-32 37
32 -22 c39 -27 66 -65 95 -129 26 -56 27 -84 28 -595 0 -219 4 -338 10 -338 6
0 10 78 10 215 l0 215 920 0 920 0 0 -469 c0 -453 -1 -470 -19 -476 -41 -13
-44 -31 -11 -68 l30 -35 0 -275 0 -276 -112 -3 -113 -3 -3 -157 -3 -158 116 0
115 0 0 -660 0 -660 -920 0 -920 1 0 659 0 660 760 0 761 0 -3 158 -3 157
-757 3 -757 2 -1 304 0 305 30 -31 c17 -17 33 -28 35 -26 3 2 -3 24 -12 47
-14 37 -15 44 -2 52 20 13 22 12 44 -24 13 -20 32 -34 50 -38 17 -4 21 -7 11
-8 -16 -1 -45 -26 -46 -41 0 -10 109 2 118 13 14 18 -1 137 -18 147 -19 12
-30 12 -30 1 0 -5 -12 -6 -27 -2 -25 6 -28 13 -31 54 -3 39 0 47 20 58 13 7
25 16 28 20 4 5 16 1 29 -8 19 -13 22 -22 18 -54 -5 -39 5 -53 17 -23 3 8 10
13 15 9 6 -3 14 2 19 11 12 21 20 8 31 -48 l9 -43 1 36 c2 55 -37 119 -89 146
-51 27 -87 29 -138 8 -68 -29 -82 -50 -82 -127 0 -39 -4 -68 -10 -68 -7 0 -10
-448 -10 -1325 l0 -1325 985 0 985 0 0 804 c0 526 3 807 10 811 6 4 10 118 10
311 0 196 -4 304 -10 304 -6 0 -10 70 -10 190 0 120 4 190 10 190 6 0 10 58
10 155 0 97 -4 155 -10 155 -7 0 -10 173 -10 498 0 328 -4 511 -11 537 -15 55
-52 101 -102 128 l-42 22 -917 3 -918 2 -16 31 c-46 91 -156 167 -269 188 -71
13 -1776 13 -1843 0z m1888 -31 l35 -18 -65 8 c-83 9 -1788 9 -1858 0 -57 -8
-63 5 -9 21 19 6 403 9 947 8 846 -2 918 -3 950 -19z m-2079 -113 c-17 -19
-38 -49 -47 -66 -22 -43 -44 -153 -44 -222 0 -41 -3 -56 -11 -51 -8 5 -10 37
-6 106 6 113 35 187 94 239 45 39 52 37 14 -6z m416 -133 c-2 -25 -6 -27 -55
-29 -28 -2 -52 1 -52 6 0 11 -19 9 -38 -3 -21 -13 -42 1 -42 29 0 28 25 44 41
28 7 -7 22 -7 45 0 40 12 53 4 35 -25 -10 -17 -10 -19 1 -16 7 3 15 13 17 24
8 45 51 33 48 -14z m1528 34 c19 -14 19 -15 -5 -35 -31 -26 -35 -26 -60 -1
-25 25 -25 29 3 40 31 12 41 12 62 -4z m-1725 -33 c0 -41 -13 -35 -24 10 -5
20 -3 27 9 27 11 0 15 -11 15 -37z m1618 5 c-3 -32 -4 -33 -52 -33 -55 1 -69
14 -31 31 18 9 25 9 29 0 2 -6 5 -3 5 6 1 14 14 23 44 27 5 0 7 -14 5 -31z
m270 0 c3 -28 3 -28 -57 -28 l-61 0 0 30 0 31 58 -3 c54 -3 57 -4 60 -30z
m2031 -7 c8 -5 -5 -7 -35 -4 -27 3 -51 7 -53 9 -9 8 75 3 88 -5z m-3888 -191
c27 -15 51 -67 43 -93 -18 -61 -83 -91 -133 -61 -55 32 -65 86 -25 133 28 33
75 42 115 21z m139 -72 c-3 -40 -9 -73 -15 -73 -5 0 -11 33 -13 73 -3 64 -1
72 15 72 16 0 17 -8 13 -72z m170 53 c0 -14 5 -18 20 -14 30 8 50 -15 50 -58
0 -51 -16 -59 -102 -50 -5 1 -8 33 -8 71 0 63 2 70 20 70 13 0 20 -7 20 -19z
m1555 8 c7 -11 -78 -99 -95 -99 -21 0 -8 26 32 67 44 45 53 50 63 32z m-65 -9
c0 -5 -13 -10 -30 -10 -29 0 -30 -1 -30 -51 l0 -50 48 3 c45 3 47 4 50 36 4
38 22 33 22 -7 0 -38 -17 -51 -70 -51 -58 0 -70 12 -70 70 0 25 5 51 12 58 14
14 68 16 68 2z m-1552 -22 c12 -11 17 -89 6 -101 -16 -16 -34 8 -34 45 0 51
-23 47 -30 -6 -7 -55 -25 -44 -28 18 l-3 54 38 0 c21 0 44 -5 51 -10z m233 2
c26 -15 26 -71 -1 -95 -47 -42 -111 27 -76 80 17 27 45 32 77 15z m67 -6 c8
-14 10 -14 21 0 13 15 41 22 41 11 0 -3 -7 -16 -16 -30 -14 -21 -14 -26 1 -48
21 -33 0 -50 -24 -18 l-16 21 -13 -21 c-10 -15 -17 -18 -24 -11 -8 8 -7 16 2
27 12 14 11 29 -5 68 -9 22 20 24 33 1z m-193 -219 c35 -34 34 -88 -1 -120
-27 -25 -28 -25 -231 -25 l-205 0 -29 29 c-31 31 -36 59 -17 94 23 44 33 46
251 47 208 0 208 0 232 -25z m1250 -10 c41 -40 30 -92 -25 -115 -25 -10 -34
-10 -55 4 -50 33 -55 91 -12 121 31 22 65 18 92 -10z m-1110 -15 c4 -6 14 -9
23 -8 12 2 16 -6 18 -29 1 -18 -2 -33 -7 -33 -5 0 -9 9 -9 21 0 21 0 21 -19
-2 -16 -20 -23 -22 -38 -13 -10 6 -19 19 -21 28 -7 32 37 62 53 36z m81 -10
c8 0 14 -5 14 -11 0 -8 4 -8 13 -2 10 9 87 16 87 8 0 -1 -6 -14 -13 -28 -11
-20 -17 -23 -25 -15 -9 9 -12 9 -12 1 0 -7 -13 -11 -30 -11 -23 1 -30 6 -30
20 0 11 -5 16 -10 13 -6 -4 -8 -10 -5 -15 3 -5 1 -11 -5 -15 -6 -4 -10 10 -9
37 0 24 3 37 6 31 2 -7 11 -13 19 -13z m1155 3 c0 -15 2 -15 9 2 5 11 9 15 9
8 1 -7 8 -10 16 -7 10 4 15 0 15 -11 0 -13 3 -15 13 -8 6 6 26 11 43 11 28 1
30 -2 26 -29 -4 -28 -7 -30 -49 -27 -35 1 -47 7 -53 22 l-9 21 0 -21 c-1 -36
-31 -25 -31 12 0 26 -3 32 -16 27 -11 -4 -12 -8 -4 -13 9 -5 7 -13 -6 -28 -22
-26 -34 -20 -34 17 0 35 6 41 42 41 20 0 28 -5 29 -17z m471 -778 c-17 -36
-32 -46 -32 -20 0 11 36 55 46 55 1 0 -6 -16 -14 -35z m8 -105 c0 -5 -2 -10
-4 -10 -3 0 -8 5 -11 10 -3 6 -1 10 4 10 6 0 11 -4 11 -10z m113 -19 c10 -1 9
-91 -1 -91 -5 0 -15 12 -23 28 -8 15 -22 33 -31 40 -32 24 -17 30 55 23z
m1611 -727 c13 -5 16 -25 16 -115 l0 -109 -32 0 c-51 0 -95 32 -109 81 -11 37
-11 46 7 78 10 20 34 44 54 53 39 20 42 21 64 12z m-1585 -30 c78 -65 31 -194
-71 -194 -32 0 -47 7 -74 34 -29 29 -34 41 -34 79 0 95 106 143 179 81z m806
-15 c-3 -5 0 -6 8 -3 10 3 14 -4 14 -25 0 -23 -3 -28 -13 -20 -8 7 -14 6 -17
-3 -3 -7 -6 -2 -7 12 l-1 25 -11 -25 c-6 -16 -12 -20 -15 -12 -4 10 -8 10 -19
2 -17 -15 -34 -4 -34 20 0 25 17 35 35 20 11 -9 15 -9 15 -1 0 6 7 11 15 11 8
0 15 5 15 11 0 5 5 7 10 4 6 -4 8 -11 5 -16z m-605 1 c-11 -8 -6 -9 20 -8 19
2 38 7 41 12 4 4 15 3 26 -2 14 -8 23 -8 31 0 14 14 13 14 17 -30 2 -26 -1
-32 -12 -28 -8 3 -19 6 -24 6 -5 0 -9 8 -10 18 0 13 -2 12 -9 -5 -5 -12 -18
-27 -30 -33 -18 -10 -22 -9 -27 8 -3 14 -11 18 -29 14 -14 -2 -24 0 -24 7 0 6
-7 11 -15 11 -8 0 -15 -7 -15 -16 0 -8 -4 -12 -10 -9 -11 7 -14 48 -3 58 3 4
25 7 47 7 31 0 37 -3 26 -10z m184 -23 l-5 -22 10 23 c11 24 19 26 41 12 22
-14 0 -44 -33 -47 -21 -1 -28 4 -33 22 -6 26 2 48 16 40 4 -3 6 -15 4 -28z
m104 21 c9 -9 12 -9 12 0 0 7 5 12 10 12 6 0 10 -7 10 -16 0 -12 4 -14 13 -7
14 12 47 13 47 2 0 -5 11 -4 25 1 28 11 36 3 25 -25 -8 -24 -40 -26 -58 -5 -8
8 -11 10 -8 3 9 -16 -12 -27 -28 -14 -7 6 -16 8 -19 4 -4 -3 -13 0 -22 7 -10
8 -15 9 -15 1 0 -6 -4 -11 -10 -11 -5 0 -10 14 -10 30 0 32 9 37 28 18z m217
-2 c-3 -6 -8 -19 -11 -28 -9 -25 -18 -22 -30 10 -11 27 -10 29 18 29 17 0 26
-5 23 -11z m-535 -96 c0 -5 -7 -10 -15 -10 -17 0 -20 -16 -6 -25 6 -3 19 4 29
16 12 12 22 16 26 10 4 -6 17 -6 35 -1 16 4 31 6 34 4 8 -8 82 -9 95 -1 13 9
27 -14 20 -34 -5 -16 -140 -12 -150 4 -6 9 -8 9 -8 1 0 -15 -38 -25 -46 -12
-4 6 -10 6 -16 0 -16 -16 -38 -2 -38 22 0 13 3 26 7 29 10 11 33 8 33 -3z
m272 -11 c2 -7 12 -7 29 0 16 5 41 6 63 1 21 -4 38 -4 42 1 3 5 11 6 17 2 7
-4 20 -6 30 -5 12 2 17 -3 17 -19 0 -16 -5 -20 -20 -16 -11 3 -22 1 -25 -4 -7
-10 -37 0 -47 15 -5 7 -8 7 -8 -1 0 -7 -9 -13 -20 -13 -11 0 -20 5 -20 11 0 8
-4 8 -13 0 -14 -11 -77 -11 -77 1 0 28 24 50 32 27z m-322 -1564 c0 -25 -3
-45 -7 -45 -14 0 -73 39 -73 48 0 8 56 40 73 41 4 1 7 -19 7 -44z m535 25 c37
-41 -24 -97 -63 -58 -17 17 -15 44 4 62 21 21 37 20 59 -4z m560 -25 c0 -40 0
-40 -42 -43 l-43 -3 0 39 c0 48 5 54 50 50 34 -3 35 -4 35 -43z"/>
<path d="M7691 4054 c0 -11 3 -14 6 -6 3 7 2 16 -1 19 -3 4 -6 -2 -5 -13z"/>
<path d="M7732 4061 c-11 -6 -9 -9 7 -14 11 -3 25 1 32 9 9 11 8 14 -7 14 -11
0 -25 -4 -32 -9z"/>
<path d="M8004 3786 c-7 -19 3 -36 22 -36 10 0 14 8 12 22 -4 26 -26 36 -34
14z"/>
<path d="M8127 3793 c-13 -12 -7 -43 7 -43 16 0 25 19 18 38 -5 13 -15 16 -25
5z"/>
<path d="M7642 3545 c0 -16 2 -22 5 -12 2 9 2 23 0 30 -3 6 -5 -1 -5 -18z"/>
<path d="M9207 3572 c-21 -23 -21 -41 -1 -70 28 -41 94 -16 94 36 0 47 -61 69
-93 34z m73 -21 c0 -5 -7 -16 -15 -24 -8 -8 -11 -17 -8 -21 4 -3 -2 -6 -12 -6
-10 0 -16 3 -12 6 3 4 0 13 -8 21 -24 23 -18 33 20 33 19 0 35 -4 35 -9z"/>
<path d="M8156 3553 c-12 -12 -6 -33 9 -33 8 0 15 6 15 14 0 17 -14 28 -24 19z"/>
<path d="M11597 1863 c-13 -12 -7 -25 6 -14 8 6 18 7 22 3 5 -4 5 -1 1 6 -8
13 -19 16 -29 5z"/>
<path d="M11608 1826 c-24 -18 -23 -46 2 -46 16 0 20 7 20 30 0 34 1 34 -22
16z"/>
<path d="M9966 1848 c5 -14 1 -18 -20 -18 -14 0 -26 -5 -26 -10 0 -6 6 -10 13
-9 27 3 36 -2 31 -18 -5 -15 -3 -15 11 2 9 11 20 20 25 20 4 0 12 3 16 8 4 4
-1 7 -11 7 -10 0 -24 8 -31 18 -13 16 -14 16 -8 0z"/>
<path d="M10180 1886 c0 -2 7 -6 15 -10 8 -3 15 -1 15 4 0 6 -7 10 -15 10 -8
0 -15 -2 -15 -4z"/>
<path d="M10111 226 c-10 -12 -8 -17 8 -25 28 -15 31 -14 31 14 0 28 -21 33
-39 11z"/>
<path d="M10643 235 c-14 -11 -16 -18 -7 -32 17 -28 48 -23 52 8 4 32 -18 43
-45 24z"/>
<path d="M11184 236 c-10 -27 1 -51 25 -54 31 -5 45 11 37 42 -5 19 -13 26
-32 26 -13 0 -27 -6 -30 -14z"/>
<path d="M11097 3542 c-3 -4 4 -18 14 -31 l20 -24 21 20 c11 12 17 26 14 32
-8 12 -62 15 -69 3z"/>
<path d="M11327 3544 c-4 -4 -7 -20 -7 -36 0 -21 5 -28 20 -28 15 0 20 7 20
25 0 14 0 28 1 33 0 10 -25 14 -34 6z"/>
<path d="M11225 3510 l-29 -30 31 0 c26 0 31 4 35 30 3 17 2 30 -2 30 -3 0
-19 -13 -35 -30z"/>
<path d="M9813 3314 c-3 -9 2 -23 13 -32 17 -16 17 -16 5 0 -7 10 -11 25 -7
33 3 8 3 15 0 15 -2 0 -7 -7 -11 -16z"/>
<path d="M7860 3265 l0 -35 24 21 c27 24 24 49 -5 49 -15 0 -19 -7 -19 -35z
m30 10 c0 -8 -4 -15 -10 -15 -5 0 -10 7 -10 15 0 8 5 15 10 15 6 0 10 -7 10
-15z"/>
<path d="M8091 3263 c0 -21 3 -31 6 -23 3 8 11 18 17 22 8 5 7 8 -1 8 -19 0
-16 18 5 23 13 4 11 5 -5 6 -20 1 -23 -4 -22 -36z"/>
<path d="M8440 3290 c0 -5 -6 -10 -14 -10 -8 0 -17 -4 -20 -9 -10 -16 5 -41
25 -41 15 0 19 7 19 35 0 19 -2 35 -5 35 -3 0 -5 -4 -5 -10z m0 -35 c0 -8 -4
-15 -9 -15 -13 0 -22 16 -14 24 11 11 23 6 23 -9z"/>
<path d="M7970 3266 c0 -35 15 -40 16 -5 1 16 -3 29 -7 29 -5 0 -9 -11 -9 -24z"/>
<path d="M8008 3285 c-7 -7 3 -55 11 -55 8 0 7 47 -1 55 -2 3 -7 3 -10 0z"/>
<path d="M7928 3271 c11 -6 10 -10 -4 -15 -13 -5 -14 -10 -6 -18 6 -6 17 -8
26 -5 19 8 9 47 -13 47 -12 0 -13 -2 -3 -9z"/>
<path d="M8042 3255 c0 -16 2 -22 5 -12 2 9 2 23 0 30 -3 6 -5 -1 -5 -18z"/>
<path d="M8144 3265 c-8 -19 3 -35 24 -34 14 0 14 2 -2 8 -19 7 -19 8 3 14 13
3 20 10 16 16 -9 16 -35 13 -41 -4z"/>
<path d="M8200 3255 c0 -14 2 -25 4 -25 2 0 6 11 8 25 3 14 1 25 -3 25 -5 0
-9 -11 -9 -25z"/>
<path d="M8237 3260 c-3 -11 -1 -23 4 -26 5 -3 9 4 9 15 0 28 18 27 23 -1 4
-20 4 -19 6 5 1 20 -4 27 -18 27 -10 0 -21 -9 -24 -20z"/>
<path d="M8308 3271 c11 -7 10 -9 -3 -15 -19 -7 -11 -26 11 -26 8 0 14 10 14
25 0 17 -5 25 -17 25 -14 0 -15 -2 -5 -9z"/>
<path d="M8344 3269 c-4 -7 0 -9 14 -5 16 5 21 2 25 -16 4 -20 4 -20 6 5 1 21
-4 27 -18 27 -11 0 -23 -5 -27 -11z"/>
<path d="M8464 3265 c-8 -19 3 -35 24 -34 14 0 14 2 -2 8 -19 7 -19 8 3 14 13
3 20 10 16 16 -9 16 -35 13 -41 -4z"/>
<path d="M8529 3271 c9 -6 10 -11 2 -15 -19 -12 -12 -26 12 -25 18 1 18 2 4 6
-18 5 -18 6 -1 24 16 18 16 19 -7 19 -17 0 -20 -3 -10 -9z"/>
<path d="M7642 3188 c-16 -21 -20 -77 -6 -89 7 -5 24 -7 39 -3 25 6 27 10 22
41 -9 54 -34 77 -55 51z m25 -22 c-3 -8 -1 -16 4 -18 12 -4 1 -38 -13 -38 -6
0 -7 7 -4 16 3 8 2 12 -4 9 -11 -7 -14 28 -3 38 12 12 25 7 20 -7z"/>
<path d="M7860 3150 c1 -8 7 -24 15 -34 19 -25 19 -16 0 20 -8 16 -15 22 -15
14z"/>
<path d="M7900 3144 c0 -8 5 -12 10 -9 6 4 8 11 5 16 -9 14 -15 11 -15 -7z"/>
<path d="M8102 3135 c0 -16 2 -22 5 -12 2 9 2 23 0 30 -3 6 -5 -1 -5 -18z"/>
<path d="M8412 3135 c0 -16 2 -22 5 -12 2 9 2 23 0 30 -3 6 -5 -1 -5 -18z"/>
<path d="M8370 3134 c0 -8 5 -12 10 -9 6 4 8 11 5 16 -9 14 -15 11 -15 -7z"/>
<path d="M7951 3124 c0 -11 3 -14 6 -6 3 7 2 16 -1 19 -3 4 -6 -2 -5 -13z"/>
<path d="M8010 3127 c0 -8 6 -14 14 -14 8 0 12 6 9 14 -3 7 -9 13 -14 13 -5 0
-9 -6 -9 -13z"/>
<path d="M8053 3126 c1 -11 9 -21 17 -23 10 -3 11 -2 4 4 -6 4 -14 15 -17 23
-5 11 -6 9 -4 -4z"/>
<path d="M8231 3124 c0 -11 3 -14 6 -6 3 7 2 16 -1 19 -3 4 -6 -2 -5 -13z"/>
<path d="M8253 3126 c1 -11 9 -21 17 -23 10 -3 11 -2 4 4 -6 4 -14 15 -17 23
-5 11 -6 9 -4 -4z"/>
<path d="M8461 3124 c0 -11 3 -14 6 -6 3 7 2 16 -1 19 -3 4 -6 -2 -5 -13z"/>
<path d="M8481 3118 c-1 -21 3 -26 15 -21 9 3 11 9 6 12 -5 3 -12 13 -15 21
-3 9 -6 4 -6 -12z"/>
<path d="M8583 3132 c-9 -6 -7 -11 6 -19 16 -10 18 -9 14 8 -3 10 -6 19 -7 19
0 0 -6 -4 -13 -8z"/>
<path d="M8631 3124 c0 -11 3 -14 6 -6 3 7 2 16 -1 19 -3 4 -6 -2 -5 -13z"/>
<path d="M8661 3124 c0 -11 3 -14 6 -6 3 7 2 16 -1 19 -3 4 -6 -2 -5 -13z"/>
<path d="M8681 3124 c0 -11 3 -14 6 -6 3 7 2 16 -1 19 -3 4 -6 -2 -5 -13z"/>
<path d="M8701 3124 c0 -11 3 -14 6 -6 3 7 2 16 -1 19 -3 4 -6 -2 -5 -13z"/>
<path d="M8130 3110 c0 -6 7 -10 15 -10 8 0 15 2 15 4 0 2 -7 6 -15 10 -8 3
-15 1 -15 -4z"/>
<path d="M8530 3110 c0 -6 7 -10 15 -10 8 0 15 2 15 4 0 2 -7 6 -15 10 -8 3
-15 1 -15 -4z"/>
<path d="M9800 3012 c0 -6 6 -13 13 -16 10 -5 10 -7 0 -12 -25 -11 -12 -21 23
-18 21 1 40 8 44 14 6 9 9 9 13 -1 4 -10 6 -9 6 3 1 21 -15 32 -24 18 -5 -8
-11 -7 -21 1 -8 6 -17 9 -21 6 -3 -4 -12 -2 -20 4 -8 8 -13 8 -13 1z"/>
<path d="M11234 3005 c-3 -8 -4 -20 -1 -27 3 -7 6 -3 6 9 1 12 7 24 14 26 9 4
9 6 -1 6 -7 1 -15 -6 -18 -14z"/>
<path d="M9910 2990 c0 -11 4 -20 8 -20 4 0 8 9 8 20 0 11 -4 20 -8 20 -4 0
-8 -9 -8 -20z"/>
<path d="M9946 2995 c-9 -24 -8 -27 12 -23 9 1 22 0 27 -4 6 -3 10 4 10 17 0
15 -4 20 -11 14 -6 -5 -15 -4 -21 2 -7 7 -12 5 -17 -6z"/>
<path d="M10022 2990 c0 -14 2 -19 5 -12 2 6 2 18 0 25 -3 6 -5 1 -5 -13z"/>
<path d="M11392 2990 c0 -14 2 -19 5 -12 2 6 2 18 0 25 -3 6 -5 1 -5 -13z"/>
<path d="M10046 2986 c3 -9 11 -16 16 -16 13 0 5 23 -10 28 -7 2 -10 -2 -6
-12z"/>
<path d="M11305 2991 c-3 -5 -1 -12 4 -15 5 -3 11 1 15 9 6 16 -9 21 -19 6z"/>
<path d="M11356 2985 c-3 -9 0 -15 9 -15 8 0 15 7 15 15 0 8 -4 15 -9 15 -5 0
-11 -7 -15 -15z"/>
<path d="M11410 2984 c0 -9 5 -14 12 -12 18 6 21 28 4 28 -9 0 -16 -7 -16 -16z"/>
<path d="M11515 2990 c4 -6 11 -8 16 -5 14 9 11 15 -7 15 -8 0 -12 -5 -9 -10z"/>
<path d="M8238 2973 c6 -2 18 -2 25 0 6 3 1 5 -13 5 -14 0 -19 -2 -12 -5z"/>
<path d="M7319 2968 c-5 -18 -2 -148 4 -148 4 0 7 34 7 75 0 41 -2 75 -5 75
-3 0 -5 -1 -6 -2z"/>
<path d="M7657 2953 c-15 -14 -7 -43 12 -43 26 0 36 17 21 35 -14 16 -23 19
-33 8z"/>
<path d="M11296 2836 c5 -23 3 -26 -19 -26 -48 0 -115 -78 -103 -122 3 -12 -4
-32 -16 -49 -18 -24 -20 -33 -10 -54 13 -28 67 -65 95 -65 11 0 17 8 17 24 0
19 4 22 25 19 13 -3 27 -14 30 -24 4 -10 10 -19 14 -19 15 0 69 30 82 46 11
13 10 17 -4 25 -9 6 -17 17 -17 26 0 12 7 14 30 10 27 -6 30 -4 36 27 10 56 3
70 -37 76 -43 6 -86 51 -91 95 -2 19 -10 31 -21 33 -15 3 -17 -1 -11 -22z m44
-101 c11 -13 10 -18 -6 -29 -19 -14 -14 -31 9 -31 7 0 13 -7 15 -16 3 -18 -35
-33 -41 -16 -1 5 -10 8 -17 5 -10 -4 -5 -10 17 -20 31 -13 32 -15 17 -36 -14
-21 -17 -21 -45 -7 -16 9 -29 21 -29 28 0 6 -3 23 -7 36 -6 22 -4 23 25 19 40
-6 44 17 7 34 -31 14 -32 26 -2 38 32 13 43 12 57 -5z"/>
<path d="M11270 2621 c0 -9 24 -21 42 -21 6 0 6 6 -2 15 -14 16 -40 20 -40 6z"/>
<path d="M10320 2821 c-45 -6 -45 -6 -45 -45 0 -25 -5 -41 -14 -44 -10 -3 -13
2 -9 23 5 22 3 25 -8 13 -7 -7 -16 -26 -20 -42 -6 -27 -6 -28 24 -21 36 7 46
-5 57 -72 7 -42 6 -43 -20 -43 -17 0 -25 -5 -22 -12 2 -7 18 -12 36 -11 26 1
31 -2 26 -17 -7 -21 7 -32 42 -36 14 -1 23 3 23 12 0 8 6 14 13 14 19 0 57 43
57 64 0 16 -2 16 -22 2 -29 -21 -59 -21 -52 -1 4 11 -1 15 -17 16 -13 0 -18 3
-11 6 6 2 12 11 12 19 0 8 6 14 13 14 7 1 5 6 -5 14 -20 14 -24 36 -8 36 6 0
15 -11 21 -24 6 -13 20 -27 31 -29 16 -5 17 -3 7 9 -6 8 -9 17 -6 21 4 3 2 14
-4 25 -10 18 -8 19 13 12 12 -4 32 -8 43 -9 11 -1 22 -10 23 -20 3 -10 0 -15
-7 -11 -6 4 -11 2 -11 -3 0 -6 5 -11 12 -11 9 0 9 -3 0 -12 -22 -22 -13 -35
24 -34 47 2 60 31 44 95 -17 69 -45 101 -86 101 l-35 0 20 -26 c21 -27 28 -64
12 -64 -23 0 -86 37 -89 51 -3 18 23 32 41 23 7 -3 3 2 -7 10 -21 17 -23 17
-96 7z"/>
<path d="M10808 2796 c-16 -17 -33 -49 -39 -71 -17 -68 -17 -67 -54 -63 -42 5
-51 -11 -30 -52 14 -27 18 -28 41 -18 14 7 23 17 20 25 -3 7 -1 13 4 13 15 0
12 -36 -5 -50 -22 -18 -19 -28 16 -45 43 -23 110 -29 131 -13 15 11 15 16 3
38 l-13 25 -7 -28 c-13 -52 -47 -30 -65 43 -22 84 -20 95 20 96 61 1 71 4 65
14 -4 6 -14 9 -23 6 -10 -3 -26 2 -37 10 -20 15 -20 15 4 35 29 24 42 21 59
-15 24 -49 27 -94 6 -117 -18 -20 -18 -21 1 -35 11 -7 26 -18 33 -24 28 -24
72 47 72 115 0 86 -45 138 -122 140 -46 2 -55 -1 -80 -29z m157 -27 c9 -29 -4
-38 -21 -15 -18 25 -18 36 0 36 8 0 18 -9 21 -21z"/>
<path d="M9960 2730 c-8 -5 -11 -12 -8 -16 10 -9 38 3 38 16 0 12 -10 13 -30
0z"/>
<path d="M10680 2721 c-5 -11 -10 -22 -10 -25 0 -10 34 -6 58 7 l23 13 -26 12
c-33 15 -32 15 -45 -7z"/>
<path d="M7861 2655 c1 -40 1 -40 10 -10 5 18 5 33 -1 39 -7 7 -10 -4 -9 -29z"/>
<path d="M8220 2676 c0 -8 5 -18 10 -21 6 -3 10 1 10 9 0 8 -4 18 -10 21 -5 3
-10 -1 -10 -9z"/>
<path d="M8251 2661 c-8 -17 -11 -34 -8 -38 8 -7 29 46 24 60 -2 6 -9 -4 -16
-22z"/>
<path d="M8303 2655 c0 -22 2 -30 4 -17 2 12 2 30 0 40 -3 9 -5 -1 -4 -23z"/>
<path d="M8331 2660 c-1 -29 3 -36 18 -36 14 0 17 4 11 11 -6 7 -5 16 3 24 9
10 9 11 -5 6 -11 -4 -18 0 -21 12 -3 10 -5 2 -6 -17z"/>
<path d="M7900 2664 c0 -8 -4 -12 -10 -9 -16 10 -12 -11 5 -25 13 -11 15 -8
15 19 0 17 -2 31 -5 31 -3 0 -5 -7 -5 -16z"/>
<path d="M8038 2675 c-7 -7 3 -55 11 -55 8 0 7 47 -1 55 -2 3 -7 3 -10 0z"/>
<path d="M8191 2670 c0 -8 4 -24 8 -34 6 -15 10 -16 16 -7 4 7 3 16 -2 20 -6
3 -13 13 -16 21 -5 13 -5 13 -6 0z"/>
<path d="M7924 2656 c-8 -20 3 -36 24 -36 15 0 15 2 2 10 -13 8 -12 10 3 10
11 0 17 6 15 13 -7 18 -37 21 -44 3z"/>
<path d="M7985 2660 c-3 -6 1 -13 10 -16 13 -6 14 -8 3 -15 -10 -7 -9 -9 5 -9
19 0 23 15 6 26 -8 4 -7 9 2 15 11 7 10 9 -3 9 -9 0 -20 -5 -23 -10z"/>
<path d="M8070 2645 c0 -18 5 -25 20 -25 15 0 20 7 20 25 0 18 -5 25 -20 25
-15 0 -20 -7 -20 -25z m30 0 c0 -8 -4 -15 -10 -15 -5 0 -10 7 -10 15 0 8 5 15
10 15 6 0 10 -7 10 -15z"/>
<path d="M8121 2643 c0 -16 3 -22 6 -13 3 8 10 21 16 28 7 8 5 12 -7 12 -11 0
-16 -8 -15 -27z"/>
<path d="M8282 2645 c0 -16 2 -22 5 -12 2 9 2 23 0 30 -3 6 -5 -1 -5 -18z"/>
<path d="M8384 2655 c-8 -19 3 -35 24 -34 14 0 14 2 -2 8 -19 7 -19 8 3 14 13
3 20 10 16 16 -9 16 -35 13 -41 -4z"/>
<path d="M10830 2650 c0 -5 5 -10 11 -10 5 0 7 5 4 10 -3 6 -8 10 -11 10 -2 0
-4 -4 -4 -10z"/>
<path d="M10255 2640 c3 -5 14 -10 23 -10 15 0 15 2 2 10 -20 13 -33 13 -25 0z"/>
<path d="M7695 2601 c-6 -11 9 -23 19 -14 9 9 7 23 -3 23 -6 0 -12 -4 -16 -9z"/>
<path d="M7720 2550 c-27 -23 -36 -25 -44 -7 -5 10 -7 10 -12 0 -3 -7 -14 -13
-24 -13 -10 0 -26 -3 -34 -6 -13 -5 -14 -9 -4 -21 9 -11 9 -16 -2 -23 -8 -5
-18 -6 -22 -4 -4 3 -8 -1 -8 -9 0 -20 66 -77 88 -77 10 0 23 5 30 12 9 9 12 9
12 0 0 -19 57 13 71 40 22 41 8 128 -21 128 -4 0 -17 -9 -30 -20z m50 -40 c0
-12 -28 -25 -36 -17 -9 9 6 27 22 27 8 0 14 -5 14 -10z m-125 -33 c-13 -10
-15 -16 -6 -21 6 -4 9 -12 6 -17 -11 -17 -22 -9 -19 14 1 12 3 25 3 30 1 4 9
7 18 7 15 0 15 -1 -2 -13z"/>
<path d="M7571 2534 c0 -11 3 -14 6 -6 3 7 2 16 -1 19 -3 4 -6 -2 -5 -13z"/>
<path d="M7910 2530 c0 -11 4 -20 8 -20 4 0 8 9 8 20 0 11 -4 20 -8 20 -4 0
-8 -9 -8 -20z"/>
<path d="M8017 2543 c-9 -9 -9 -41 1 -46 4 -3 7 8 7 24 0 16 0 29 -1 29 0 0
-4 -3 -7 -7z"/>
<path d="M8630 2521 c0 -11 4 -22 9 -25 4 -3 6 6 3 19 -5 30 -12 33 -12 6z"/>
<path d="M7860 2521 c0 -5 7 -11 15 -15 8 -3 15 -1 15 3 0 5 -7 11 -15 15 -8
3 -15 1 -15 -3z"/>
<path d="M8092 2510 c0 -14 2 -19 5 -12 2 6 2 18 0 25 -3 6 -5 1 -5 -13z"/>
<path d="M8211 2514 c0 -11 3 -14 6 -6 3 7 2 16 -1 19 -3 4 -6 -2 -5 -13z"/>
<path d="M8231 2513 c-1 -16 5 -23 17 -23 15 0 15 -2 2 -11 -13 -9 -13 -10 0
-6 8 2 16 16 17 33 1 16 -1 21 -3 12 -3 -10 -9 -18 -14 -18 -5 0 -11 8 -13 18
-4 13 -5 11 -6 -5z"/>
<path d="M8461 2513 c-1 -16 5 -23 17 -23 10 0 13 3 6 8 -6 4 -14 14 -17 22
-4 10 -6 8 -6 -7z"/>
<path d="M8612 2510 c0 -14 2 -19 5 -12 2 6 2 18 0 25 -3 6 -5 1 -5 -13z"/>
<path d="M8662 2510 c0 -14 2 -19 5 -12 2 6 2 18 0 25 -3 6 -5 1 -5 -13z"/>
<path d="M8706 2521 c-3 -5 1 -14 8 -20 12 -10 13 -8 9 8 -6 23 -9 25 -17 12z"/>
<path d="M8420 2511 c0 -5 5 -13 10 -16 6 -3 10 -2 10 4 0 5 -4 13 -10 16 -5
3 -10 2 -10 -4z"/>
<path d="M7318 2503 c-2 -5 -1 -570 2 -1258 l5 -1250 3 1258 c1 691 0 1257 -2
1257 -3 0 -6 -3 -8 -7z"/>
<path d="M7918 2493 c7 -3 16 -2 19 1 4 3 -2 6 -13 5 -11 0 -14 -3 -6 -6z"/>
<path d="M9860 2446 c0 -2 7 -6 15 -10 8 -3 15 -1 15 4 0 6 -7 10 -15 10 -8 0
-15 -2 -15 -4z"/>
<path d="M11345 2441 c-3 -5 -1 -12 5 -16 5 -3 10 1 10 9 0 18 -6 21 -15 7z"/>
<path d="M9917 2420 c-3 -12 0 -20 8 -20 8 0 11 8 8 20 -3 11 -7 20 -8 20 -1
0 -5 -9 -8 -20z"/>
<path d="M11257 2419 c4 -13 8 -18 11 -10 2 7 -1 18 -6 23 -8 8 -9 4 -5 -13z"/>
<path d="M11387 2419 c4 -13 8 -18 11 -10 2 7 -1 18 -6 23 -8 8 -9 4 -5 -13z"/>
<path d="M10421 2414 c0 -11 3 -14 6 -6 3 7 2 16 -1 19 -3 4 -6 -2 -5 -13z"/>
<path d="M10441 2414 c0 -11 3 -14 6 -6 3 7 2 16 -1 19 -3 4 -6 -2 -5 -13z"/>
<path d="M10461 2414 c0 -11 3 -14 6 -6 3 7 2 16 -1 19 -3 4 -6 -2 -5 -13z"/>
<path d="M10771 2414 c0 -11 3 -14 6 -6 3 7 2 16 -1 19 -3 4 -6 -2 -5 -13z"/>
<path d="M10010 2398 c0 -19 2 -20 10 -8 13 19 13 30 0 30 -5 0 -10 -10 -10
-22z"/>
<path d="M7654 2335 c-4 -9 -2 -21 4 -27 15 -15 44 -1 40 19 -4 23 -36 29 -44
8z"/>
<path d="M9811 2125 c-1 -31 15 -51 31 -38 7 6 31 9 53 7 25 -2 45 2 56 12 16
14 18 14 28 -3 10 -17 10 -17 11 2 l1 20 10 -20 9 -20 -3 20 c-2 17 -10 20
-46 20 -25 0 -50 -6 -57 -12 -17 -17 -27 -16 -21 1 4 11 -2 14 -28 12 -19 -2
-36 2 -39 8 -2 6 -5 2 -5 -9z m39 -15 c0 -5 -5 -10 -11 -10 -5 0 -7 5 -4 10 3
6 8 10 11 10 2 0 4 -4 4 -10z m85 0 c3 -5 -1 -10 -10 -10 -9 0 -13 5 -10 10 3
6 8 10 10 10 2 0 7 -4 10 -10z"/>
<path d="M10040 2117 c0 -4 5 -5 10 -2 6 3 10 -2 10 -11 0 -16 1 -16 20 1 11
10 20 13 20 7 0 -7 -4 -12 -10 -12 -5 0 -7 -7 -4 -15 8 -21 24 -8 24 19 0 19
-5 22 -35 22 -19 0 -35 -4 -35 -9z"/>
<path d="M10021 2104 c0 -11 3 -14 6 -6 3 7 2 16 -1 19 -3 4 -6 -2 -5 -13z"/>
<path d="M7861 1855 c1 -40 1 -40 11 -12 7 21 7 32 -1 40 -8 8 -11 0 -10 -28z"/>
<path d="M7910 1883 c0 -6 -7 -19 -16 -28 -13 -12 -14 -19 -5 -28 8 -8 11 -8
11 2 0 8 8 20 18 27 14 10 15 15 5 25 -9 9 -13 9 -13 2z"/>
<path d="M8194 1876 c-9 -25 0 -51 20 -54 25 -5 44 14 28 30 -9 9 -12 8 -12
-6 0 -10 -6 -16 -12 -13 -7 2 -13 12 -13 23 0 14 6 18 23 17 13 -2 21 1 17 7
-9 15 -45 12 -51 -4z"/>
<path d="M8350 1860 c1 -29 2 -32 11 -17 14 23 27 21 32 -5 l4 -23 2 23 c0 13
-6 25 -16 29 -10 4 -21 11 -25 17 -4 6 -8 -5 -8 -24z"/>
<path d="M7942 1850 c0 -14 2 -19 5 -12 2 6 2 18 0 25 -3 6 -5 1 -5 -13z"/>
<path d="M7960 1860 c0 -5 4 -10 9 -10 6 0 13 5 16 10 3 6 -1 10 -9 10 -9 0
-16 -4 -16 -10z"/>
<path d="M8002 1845 c0 -16 2 -22 5 -12 2 9 2 23 0 30 -3 6 -5 -1 -5 -18z"/>
<path d="M8038 1863 c10 -4 8 -8 -5 -18 -17 -13 -17 -14 0 -21 10 -3 23 -2 29
4 15 15 2 42 -19 41 -12 0 -13 -2 -5 -6z"/>
<path d="M8081 1843 c2 -24 2 -25 6 -5 2 12 8 22 13 22 5 0 11 -10 13 -22 l4
-23 2 23 c0 12 5 22 10 22 5 0 12 -10 14 -22 4 -20 4 -19 6 5 1 25 -2 27 -34
27 -32 0 -35 -2 -34 -27z"/>
<path d="M8261 1843 c1 -22 2 -23 6 -8 3 11 10 23 17 27 7 5 5 8 -6 8 -13 0
-18 -7 -17 -27z"/>
<path d="M8315 1861 c17 -8 18 -10 3 -10 -26 -1 -22 -31 3 -31 28 0 23 44 -6
47 l-20 3 20 -9z"/>
<path d="M8424 1861 c18 -7 18 -8 3 -14 -23 -9 -21 -27 3 -27 15 0 20 7 20 25
0 19 -5 25 -22 24 -21 0 -21 -1 -4 -8z"/>
<path d="M8461 1843 c2 -23 2 -24 6 -5 2 12 9 22 14 22 5 0 9 -10 10 -22 0
-22 1 -22 11 2 9 21 12 22 15 8 3 -10 8 -18 13 -18 4 0 7 8 6 18 -2 12 -14 18
-39 20 -35 3 -37 2 -36 -25z"/>
<path d="M7623 1809 c-25 -13 -67 -120 -58 -148 9 -29 49 -60 85 -67 l35 -6
-31 20 c-38 25 -40 28 -49 73 -7 35 -6 36 19 32 21 -4 26 -2 26 16 0 14 5 19
15 15 8 -4 15 -12 15 -20 0 -14 11 -18 44 -14 16 1 18 -3 13 -35 -3 -21 -14
-46 -23 -56 -16 -18 -16 -19 4 -19 47 0 92 115 57 149 -15 15 -16 14 -10 -14
5 -25 4 -27 -5 -12 -6 9 -9 26 -5 36 12 40 -81 75 -132 50z"/>
<path d="M7856 1735 c-9 -24 4 -45 28 -44 20 0 20 1 -2 10 -18 7 -22 14 -17
29 7 23 0 27 -9 5z"/>
<path d="M7971 1734 c0 -11 3 -14 6 -6 3 7 2 16 -1 19 -3 4 -6 -2 -5 -13z"/>
<path d="M8001 1734 c0 -11 3 -14 6 -6 3 7 2 16 -1 19 -3 4 -6 -2 -5 -13z"/>
<path d="M8168 1743 c7 -3 16 -2 19 1 4 3 -2 6 -13 5 -11 0 -14 -3 -6 -6z"/>
<path d="M8250 1730 c0 -5 5 -10 10 -10 6 0 10 5 10 10 0 6 -4 10 -10 10 -5 0
-10 -4 -10 -10z"/>
<path d="M8026 1722 c-10 -16 1 -32 22 -32 11 0 13 3 6 8 -6 4 -13 14 -16 22
-3 10 -6 11 -12 2z"/>
<path d="M8073 1716 c1 -11 9 -21 17 -23 10 -3 11 -2 4 4 -6 4 -14 15 -17 23
-5 11 -6 9 -4 -4z"/>
<path d="M8232 1710 c0 -14 2 -19 5 -12 2 6 2 18 0 25 -3 6 -5 1 -5 -13z"/>
<path d="M8283 1716 c1 -11 9 -21 17 -23 10 -3 11 -2 4 4 -6 4 -14 15 -17 23
-5 11 -6 9 -4 -4z"/>
<path d="M8424 1710 c1 -8 9 -16 19 -18 12 -3 17 3 16 20 -1 17 -3 18 -6 6 -5
-21 -20 -24 -26 -5 -2 7 -3 6 -3 -3z"/>
<path d="M8471 1707 c-1 -25 1 -27 19 -17 11 6 19 18 19 28 -1 16 -2 16 -6 0
-2 -10 -8 -18 -13 -18 -5 0 -11 8 -13 18 -3 10 -5 6 -6 -11z"/>
<path d="M7913 1710 c2 -8 12 -16 23 -17 13 -2 15 -1 4 4 -8 3 -19 11 -23 17
-6 7 -7 6 -4 -4z"/>
<path d="M8158 1698 c5 -5 16 -8 23 -6 8 3 3 7 -10 11 -17 4 -21 3 -13 -5z"/>
<path d="M7655 1660 c3 -5 -2 -10 -12 -10 -16 0 -16 -1 -1 -16 15 -15 18 -15
39 0 19 13 20 16 6 16 -9 0 -17 5 -17 10 0 6 -5 10 -11 10 -5 0 -7 -4 -4 -10z"/>
<path d="M9860 1554 c0 -14 4 -23 9 -19 11 6 10 45 -1 45 -4 0 -8 -12 -8 -26z"/>
<path d="M10372 1560 c0 -14 2 -19 5 -12 2 6 2 18 0 25 -3 6 -5 1 -5 -13z"/>
<path d="M10032 1550 c0 -14 2 -19 5 -12 2 6 2 18 0 25 -3 6 -5 1 -5 -13z"/>
<path d="M10192 1550 c0 -14 2 -19 5 -12 2 6 2 18 0 25 -3 6 -5 1 -5 -13z"/>
<path d="M10410 1552 c0 -10 7 -19 14 -19 11 0 13 5 5 19 -5 10 -12 18 -14 18
-3 0 -5 -8 -5 -18z"/>
<path d="M11592 1550 c0 -14 2 -19 5 -12 2 6 2 18 0 25 -3 6 -5 1 -5 -13z"/>
<path d="M9970 1546 c0 -8 -6 -17 -12 -19 -8 -3 -6 -6 5 -6 11 -1 17 6 17 19
0 11 -2 20 -5 20 -3 0 -5 -6 -5 -14z"/>
<path d="M10011 1544 c0 -11 3 -14 6 -6 3 7 2 16 -1 19 -3 4 -6 -2 -5 -13z"/>
<path d="M10270 1549 c0 -5 5 -7 10 -4 6 3 10 8 10 11 0 2 -4 4 -10 4 -5 0
-10 -5 -10 -11z"/>
<path d="M7663 1543 c-21 -8 -15 -43 6 -43 11 0 23 5 27 11 8 14 -17 38 -33
32z"/>
<path d="M7882 1440 c-31 -29 -38 -65 -18 -96 15 -22 52 -44 77 -44 21 0 7 38
-18 51 -16 8 -31 18 -35 24 -28 37 23 74 52 38 29 -37 70 -49 70 -22 0 4 -12
21 -26 38 -31 37 -70 41 -102 11z"/>
<path d="M9432 1385 c0 -16 2 -22 5 -12 2 9 2 23 0 30 -3 6 -5 -1 -5 -18z"/>
<path d="M9271 1384 c0 -11 3 -14 6 -6 3 7 2 16 -1 19 -3 4 -6 -2 -5 -13z"/>
<path d="M7877 1113 c-4 -6 -11 -23 -17 -38 -9 -25 -9 -26 5 -15 12 10 18 10
31 -1 15 -12 16 -11 9 11 -12 39 -22 54 -28 43z m13 -23 c0 -5 -5 -10 -11 -10
-5 0 -7 5 -4 10 3 6 8 10 11 10 2 0 4 -4 4 -10z"/>
<path d="M7923 1085 c0 -22 2 -30 4 -17 2 12 2 30 0 40 -3 9 -5 -1 -4 -23z"/>
<path d="M7952 1100 c0 -14 2 -19 5 -12 2 6 2 18 0 25 -3 6 -5 1 -5 -13z"/>
<path d="M8107 1113 c-4 -3 -7 -19 -7 -35 0 -23 4 -28 23 -28 13 0 28 5 34 11
8 8 13 8 17 0 4 -6 15 -11 24 -11 13 0 14 2 4 9 -11 7 -10 9 3 15 23 8 7 29
-17 22 -12 -2 -27 2 -35 10 -15 15 -35 18 -46 7z m40 -19 c8 -21 -13 -42 -28
-27 -13 13 -5 43 11 43 6 0 13 -7 17 -16z"/>
<path d="M7985 1090 c18 -7 18 -8 -8 -15 -21 -6 -25 -10 -15 -16 26 -17 48
-10 48 16 0 19 -5 25 -22 24 -22 0 -22 -1 -3 -9z"/>
<path d="M8021 1073 c0 -27 1 -27 9 -5 5 12 12 22 15 22 3 0 10 -10 15 -22 10
-23 10 -23 7 2 -1 17 -9 26 -24 28 -19 3 -23 -1 -22 -25z"/>
<path d="M8233 1068 c2 -46 11 -48 26 -7 14 40 14 49 -1 24 -11 -19 -11 -19
-19 0 -5 14 -7 8 -6 -17z"/>
<path d="M8284 1085 c-3 -8 -3 -19 1 -25 8 -13 35 -13 35 0 0 5 -7 7 -15 4 -9
-4 -15 0 -15 10 0 22 13 20 35 -4 27 -30 55 -26 54 8 -2 24 -2 24 -6 4 -5 -24
-29 -25 -27 -1 1 19 -55 23 -62 4z"/>
<path d="M8401 1073 c2 -24 2 -25 6 -5 2 12 8 22 13 22 5 0 11 -10 13 -22 4
-20 4 -19 6 5 1 21 -4 27 -19 27 -15 0 -20 -6 -19 -27z"/>
<path d="M8450 1080 c0 -11 7 -23 16 -27 13 -5 13 -8 2 -15 -9 -7 -8 -8 7 -6
14 2 21 12 23 36 3 29 1 32 -22 32 -19 0 -26 -5 -26 -20z m32 -5 c0 -5 -5 -11
-11 -13 -6 -2 -11 4 -11 13 0 9 5 15 11 13 6 -2 11 -8 11 -13z"/>
<path d="M7618 1020 c-24 -24 -29 -37 -25 -58 11 -53 27 -82 52 -94 22 -10 28
-8 40 8 14 18 15 17 12 -15 -2 -38 10 -48 37 -28 15 11 17 23 10 102 -5 59
-10 83 -15 70 -4 -11 -8 -14 -8 -7 -1 17 -41 51 -59 52 -8 0 -27 -14 -44 -30z
m76 -25 c3 -9 0 -15 -9 -15 -8 0 -15 -5 -15 -11 0 -6 6 -9 14 -6 9 4 16 -3 19
-19 2 -14 2 -22 -1 -20 -2 3 -12 -4 -22 -16 -12 -16 -22 -19 -36 -13 -17 7
-16 9 9 14 27 6 27 7 12 26 -11 14 -18 16 -21 8 -7 -17 -24 -16 -24 1 0 8 7
17 16 20 12 5 14 10 5 20 -6 7 -8 16 -4 19 12 13 51 7 57 -8z m33 -67 c-3 -7
-5 -2 -5 12 0 14 2 19 5 13 2 -7 2 -19 0 -25z"/>
<path d="M9840 1010 c0 -19 6 -26 20 -27 11 -1 20 2 20 8 0 5 0 12 0 17 0 4
-6 7 -12 7 -7 0 -16 5 -20 10 -4 6 -8 -1 -8 -15z"/>
<path d="M9822 1000 c0 -14 2 -19 5 -12 2 6 2 18 0 25 -3 6 -5 1 -5 -13z"/>
<path d="M9900 1013 c0 -5 5 -15 10 -23 8 -12 10 -11 10 8 0 12 -4 22 -10 22
-5 0 -10 -3 -10 -7z"/>
<path d="M9996 993 c-6 -14 -5 -15 5 -6 7 7 10 15 7 18 -3 3 -9 -2 -12 -12z"/>
<path d="M7860 974 c0 -3 9 -17 20 -31 11 -14 20 -21 20 -14 0 6 -9 20 -20 31
-11 11 -20 17 -20 14z"/>
<path d="M8062 955 c0 -16 2 -22 5 -12 2 9 2 23 0 30 -3 6 -5 -1 -5 -18z"/>
<path d="M8692 955 c0 -16 2 -22 5 -12 2 9 2 23 0 30 -3 6 -5 -1 -5 -18z"/>
<path d="M8086 953 c-6 -14 -5 -15 5 -6 7 7 10 15 7 18 -3 3 -9 -2 -12 -12z"/>
<path d="M7915 950 c-3 -5 -1 -10 4 -10 6 0 11 5 11 10 0 6 -2 10 -4 10 -3 0
-8 -4 -11 -10z"/>
<path d="M8263 946 c1 -11 9 -21 17 -23 10 -3 11 -2 4 4 -6 4 -14 15 -17 23
-5 11 -6 9 -4 -4z"/>
<path d="M8421 944 c0 -11 3 -14 6 -6 3 7 2 16 -1 19 -3 4 -6 -2 -5 -13z"/>
<path d="M8490 949 c0 -5 5 -7 10 -4 6 3 10 8 10 11 0 2 -4 4 -10 4 -5 0 -10
-5 -10 -11z"/>
<path d="M8580 948 c0 -9 -6 -19 -12 -21 -10 -4 -10 -6 0 -6 14 -1 28 26 18
36 -3 4 -6 -1 -6 -9z"/>
<path d="M8672 940 c0 -14 2 -19 5 -12 2 6 2 18 0 25 -3 6 -5 1 -5 -13z"/>
<path d="M8210 941 c0 -10 19 -25 25 -20 1 2 -3 10 -11 17 -8 7 -14 8 -14 3z"/>
<path d="M8450 930 c0 -6 7 -10 15 -10 8 0 15 2 15 4 0 2 -7 6 -15 10 -8 3
-15 1 -15 -4z"/>
<path d="M8610 930 c-13 -8 -12 -10 3 -10 9 0 17 5 17 10 0 12 -1 12 -20 0z"/>
<path d="M8508 923 c7 -3 16 -2 19 1 4 3 -2 6 -13 5 -11 0 -14 -3 -6 -6z"/>
<path d="M7587 873 c-8 -7 21 -43 34 -43 5 0 3 11 -3 25 -11 26 -19 30 -31 18z"/>
<path d="M7656 843 c-11 -11 -6 -23 9 -23 8 0 15 4 15 9 0 13 -16 22 -24 14z"/>
<path d="M11531 747 c-1 -25 1 -27 19 -17 11 6 20 16 19 23 0 9 -2 9 -6 0 -7
-18 -21 -16 -26 5 -3 10 -5 6 -6 -11z"/>
<path d="M9871 755 c0 -5 4 -17 9 -25 9 -13 11 -13 20 0 14 22 12 34 -4 21
-11 -9 -15 -9 -19 1 -3 7 -6 9 -6 3z"/>
<path d="M9922 748 c-14 -14 -16 -28 -3 -28 5 0 11 9 14 20 6 23 5 24 -11 8z"/>
<path d="M10714 740 c0 -10 6 -16 13 -13 7 3 13 9 13 13 0 4 -6 10 -13 13 -7
3 -13 -3 -13 -13z"/>
<path d="M11280 513 c0 -5 18 -8 40 -8 22 0 40 3 40 8 0 4 -18 7 -40 7 -22 0
-40 -3 -40 -7z"/>
<path d="M7861 475 c0 -35 1 -37 10 -17 6 15 5 30 -1 40 -7 13 -9 8 -9 -23z"/>
<path d="M8202 501 c-8 -4 -12 -19 -10 -32 2 -18 9 -24 27 -24 13 0 26 6 29
13 2 6 -1 12 -7 12 -6 0 -11 -4 -11 -10 0 -5 -7 -10 -16 -10 -10 0 -14 7 -12
23 2 17 9 21 28 19 20 -2 22 0 10 8 -18 12 -21 12 -38 1z"/>
<path d="M8351 475 c0 -34 2 -37 9 -17 5 12 14 22 19 22 5 0 12 -10 14 -22 l4
-23 2 23 c0 13 -6 25 -16 29 -10 4 -21 11 -25 17 -4 6 -7 -7 -7 -29z"/>
<path d="M9993 499 c11 -7 23 -7 35 0 14 9 11 10 -18 10 -29 0 -32 -1 -17 -10z"/>
<path d="M7907 485 c-4 -8 -2 -17 3 -20 6 -4 10 -4 10 -1 0 2 3 11 6 20 3 9 2
16 -4 16 -5 0 -12 -7 -15 -15z"/>
<path d="M7965 480 c-3 -5 -2 -10 4 -10 5 0 13 5 16 10 3 6 2 10 -4 10 -5 0
-13 -4 -16 -10z"/>
<path d="M8040 481 c10 -7 11 -11 3 -11 -7 0 -13 -7 -13 -15 0 -9 9 -15 21
-15 28 0 23 43 -6 48 -17 3 -17 1 -5 -7z"/>
<path d="M8081 463 c2 -24 2 -25 6 -5 2 12 8 22 13 22 5 0 11 -10 13 -22 l4
-23 2 23 c0 12 5 22 10 22 5 0 12 -10 14 -22 4 -20 4 -19 6 5 1 25 -2 27 -34
27 -32 0 -35 -2 -34 -27z"/>
<path d="M8261 463 c0 -16 3 -22 6 -13 3 8 10 21 16 28 7 8 5 12 -7 12 -11 0
-16 -8 -15 -27z"/>
<path d="M8314 482 c18 -8 18 -9 3 -15 -24 -9 -21 -27 4 -27 28 0 23 44 -6 47
-19 3 -19 3 -1 -5z"/>
<path d="M8428 481 c11 -7 11 -9 -2 -14 -23 -9 -20 -27 4 -27 15 0 20 7 20 25
0 17 -5 25 -17 25 -14 0 -15 -2 -5 -9z"/>
<path d="M8461 463 l0 -28 11 25 11 25 6 -25 c7 -25 7 -25 13 -2 5 16 11 20
24 15 12 -4 15 -3 10 5 -4 7 -23 12 -42 12 -31 0 -34 -3 -33 -27z"/>
<path d="M10050 471 c0 -11 -6 -22 -12 -24 -8 -3 -6 -6 5 -6 12 -1 17 7 17 24
0 14 -2 25 -5 25 -3 0 -5 -9 -5 -19z"/>
<path d="M7942 460 c0 -14 2 -19 5 -12 2 6 2 18 0 25 -3 6 -5 1 -5 -13z"/>
<path d="M8002 460 c0 -14 2 -19 5 -12 2 6 2 18 0 25 -3 6 -5 1 -5 -13z"/>
<path d="M7885 450 c3 -5 8 -10 11 -10 2 0 4 5 4 10 0 6 -5 10 -11 10 -5 0 -7
-4 -4 -10z"/>
<path d="M9960 448 c0 -4 14 -8 30 -8 17 0 30 2 30 4 0 2 -13 6 -30 8 -16 3
-30 1 -30 -4z"/>
<path d="M7635 430 c-29 -11 -40 -27 -59 -87 -15 -46 -16 -55 -2 -80 16 -31
54 -53 89 -52 21 0 21 1 2 8 -30 13 -54 44 -61 80 -5 25 -3 32 7 31 29 -4 39
1 39 20 0 25 26 16 33 -11 4 -16 11 -18 31 -13 23 5 26 3 26 -18 0 -13 -9 -40
-19 -61 -22 -43 -14 -47 27 -12 22 18 32 37 37 70 5 40 3 49 -21 78 -44 53
-82 67 -129 47z m135 -95 c0 -17 -2 -17 -10 -5 -5 8 -10 24 -10 35 0 17 2 17
10 5 5 -8 10 -24 10 -35z"/>
<path d="M7851 365 c0 -5 6 -21 14 -35 8 -14 14 -20 14 -15 0 6 -6 21 -14 35
-8 14 -14 21 -14 15z"/>
<path d="M7885 350 c3 -5 8 -10 11 -10 2 0 4 5 4 10 0 6 -5 10 -11 10 -5 0 -7
-4 -4 -10z"/>
<path d="M8102 335 c0 -16 2 -22 5 -12 2 9 2 23 0 30 -3 6 -5 -1 -5 -18z"/>
<path d="M8032 330 c0 -14 2 -19 5 -12 2 6 2 18 0 25 -3 6 -5 1 -5 -13z"/>
<path d="M8050 340 c0 -5 5 -10 11 -10 5 0 7 5 4 10 -3 6 -8 10 -11 10 -2 0
-4 -4 -4 -10z"/>
<path d="M8148 343 c6 -2 18 -2 25 0 6 3 1 5 -13 5 -14 0 -19 -2 -12 -5z"/>
<path d="M8197 330 c3 -11 7 -20 9 -20 2 0 4 9 4 20 0 11 -4 20 -9 20 -5 0 -7
-9 -4 -20z"/>
<path d="M8260 333 c0 -13 5 -23 10 -23 13 0 13 11 0 30 -8 12 -10 11 -10 -7z"/>
<path d="M8376 336 c3 -8 -2 -16 -13 -19 -14 -4 -14 -5 5 -6 22 -1 31 22 12
34 -5 3 -7 0 -4 -9z"/>
<path d="M8420 341 c0 -7 -3 -10 -7 -8 -5 3 -8 -6 -8 -19 0 -13 1 -24 3 -24 6
0 22 53 17 58 -3 3 -5 0 -5 -7z"/>
<path d="M7905 329 c-4 -6 -5 -12 -2 -15 2 -3 7 2 10 11 7 17 1 20 -8 4z"/>
<path d="M8011 324 c0 -11 3 -14 6 -6 3 7 2 16 -1 19 -3 4 -6 -2 -5 -13z"/>
<path d="M7654 283 c4 -8 1 -13 -8 -13 -10 0 -13 -6 -10 -15 4 -8 12 -15 19
-15 23 0 28 21 10 38 -10 10 -15 11 -11 5z"/>
<path d="M8451 204 c0 -11 3 -14 6 -6 3 7 2 16 -1 19 -3 4 -6 -2 -5 -13z"/>
<path d="M7650 141 c0 -27 19 -36 37 -18 18 18 9 37 -18 37 -12 0 -19 -7 -19
-19z"/>
</g>
</svg>
